<svg width="800" height="440" viewBox="0 0 800 440" fill="none" xmlns="http://www.w3.org/2000/svg">
  <defs>
    <linearGradient id="bg" x1="0" y1="0" x2="800" y2="440" gradientUnits="userSpaceOnUse">
      <stop offset="0%" stop-color="#0D1220"/>
      <stop offset="100%" stop-color="#0A0E14"/>
    </linearGradient>
    <linearGradient id="accent" x1="0" y1="0" x2="800" y2="0" gradientUnits="userSpaceOnUse">
      <stop offset="0%" stop-color="#22D3EE"/>
      <stop offset="100%" stop-color="#818CF8"/>
    </linearGradient>
  </defs>
  <rect width="800" height="440" rx="14" fill="url(#bg)"/>
  <rect x="0.5" y="0.5" width="799" height="439" rx="14" fill="none" stroke="#1E2536"/>
  <!-- browser chrome -->
  <rect x="0" y="0" width="800" height="42" rx="14" fill="#10141F"/>
  <rect x="0" y="28" width="800" height="14" fill="#10141F"/>
  <circle cx="24" cy="21" r="6" fill="#3A4256"/>
  <circle cx="46" cy="21" r="6" fill="#3A4256"/>
  <circle cx="68" cy="21" r="6" fill="#3A4256"/>
  <rect x="100" y="12" width="500" height="18" rx="9" fill="#161C2B"/>
  <text x="118" y="25" font-family="Consolas, monospace" font-size="11" fill="#5B6478">grapetask.co/marketplace</text>

  <!-- placeholder layout blocks -->
  <rect x="40" y="80" width="720" height="64" rx="10" fill="#121826" stroke="#1E2536"/>
  <rect x="64" y="100" width="220" height="12" rx="4" fill="url(#accent)" opacity="0.85"/>
  <rect x="64" y="120" width="340" height="8" rx="4" fill="#2A3145"/>

  <rect x="40" y="160" width="230" height="240" rx="10" fill="#121826" stroke="#1E2536"/>
  <rect x="290" y="160" width="230" height="240" rx="10" fill="#121826" stroke="#1E2536"/>
  <rect x="540" y="160" width="220" height="240" rx="10" fill="#121826" stroke="#1E2536"/>

  <rect x="64" y="184" width="182" height="90" rx="8" fill="#161C2B"/>
  <rect x="64" y="284" width="140" height="10" rx="4" fill="url(#accent)"/>
  <rect x="64" y="304" width="182" height="8" rx="4" fill="#2A3145"/>
  <rect x="64" y="320" width="150" height="8" rx="4" fill="#2A3145"/>

  <rect x="314" y="184" width="182" height="90" rx="8" fill="#161C2B"/>
  <rect x="314" y="284" width="120" height="10" rx="4" fill="url(#accent)"/>
  <rect x="314" y="304" width="182" height="8" rx="4" fill="#2A3145"/>
  <rect x="314" y="320" width="140" height="8" rx="4" fill="#2A3145"/>

  <rect x="564" y="184" width="172" height="90" rx="8" fill="#161C2B"/>
  <rect x="564" y="284" width="110" height="10" rx="4" fill="url(#accent)"/>
  <rect x="564" y="304" width="172" height="8" rx="4" fill="#2A3145"/>
  <rect x="564" y="320" width="130" height="8" rx="4" fill="#2A3145"/>

  <text x="400" y="424" text-anchor="middle" font-family="'Segoe UI', Helvetica, Arial, sans-serif" font-size="14" font-weight="600" fill="#7A8399">GrapeTask — preview placeholder</text>
</svg>
